<svg xmlns="http://www.w3.org/2000/svg" xmlns:xlink="http://www.w3.org/1999/xlink" version="1.1" x="0px" y="0px" viewBox="0 0 100 100" enable-background="new 0 0 100 100" xml:space="preserve"><g><path fill="#000000" d="M96.4,25.5c-0.2-0.7-0.8-1.1-1.5-1.1c-0.7,0-1.4,0-2.2,0c-14.9,0-24.9,4.8-30,8.1   c-10-10.2-18.4-12.9-18.9-13.1c-0.4-0.1-0.9-0.1-1.3,0.2C28.1,28,13.5,43.3,12.9,44c-0.3,0.4-0.5,0.9-0.4,1.4   c0.1,0.5,0.4,0.9,0.9,1.1c0.2,0.1,16.1,7.8,27.1,28c0.3,0.5,0.7,0.8,1.2,0.8c0.1,0,0.1,0,0.2,0c0.5,0,0.9-0.2,1.2-0.5   c13.4-15.2,31-21.8,32.2-22.2c0,0,0.1,0,0.1,0c0,0,0,0,0,0c0.1,0,0.2-0.1,0.2-0.1c0,0,0.1-0.1,0.1-0.1c0.1,0,0.2-0.1,0.2-0.2   c0.1-0.1,0.2-0.2,0.2-0.2c0,0,0,0,0-0.1c0-0.1,0.1-0.2,0.1-0.3c7.1-15.7,19.3-24.3,19.4-24.4C96.3,26.9,96.6,26.2,96.4,25.5z    M72.5,50.3c-0.2,0.1-0.3,0.1-0.5,0.2c-5.3,2.2-18.5,8.5-29.8,20.6c-9.1-15.8-20.9-23.8-25.5-26.4c4-4,15.5-15.2,26.8-22   c2,0.8,8.7,3.9,16.6,11.7c0.4,0.4,0.8,0.8,1.1,1.1c2.8,3,5.8,6.5,8.7,10.8C70.8,47.6,71.7,48.9,72.5,50.3z"></path><path fill="#000000" d="M25.3,43c-0.7-0.5-1.7-0.3-2.2,0.4c-0.5,0.7-0.3,1.7,0.4,2.2c2.8,1.9,5.4,4,7.8,6.2   c0.3,0.3,0.7,0.4,1.1,0.4c0.4,0,0.9-0.2,1.2-0.5c0.6-0.7,0.5-1.7-0.1-2.3C31,47.2,28.3,45,25.3,43z"></path><path fill="#000000" d="M28,41.1c3,1.9,5.8,4.1,8.3,6.3c0.3,0.3,0.7,0.4,1.1,0.4c0.4,0,0.9-0.2,1.2-0.5c0.6-0.7,0.5-1.7-0.1-2.3   c-2.6-2.3-5.5-4.5-8.7-6.6C29,38,28,38.2,27.6,38.9S27.3,40.7,28,41.1z"></path><path fill="#000000" d="M33.1,37.3c2.8,1.7,5.5,3.6,8,5.7c0.3,0.3,0.7,0.4,1,0.4c0.5,0,0.9-0.2,1.2-0.6c0.6-0.7,0.5-1.7-0.2-2.2   c-2.6-2.2-5.4-4.2-8.4-6c-0.8-0.5-1.7-0.2-2.2,0.5C32.1,35.8,32.3,36.8,33.1,37.3z"></path><path fill="#000000" d="M47.9,45c-0.5-0.5-1.4-0.6-2-0.2c-3.1,2.1-6.5,4.7-10.4,9.7c-0.5,0.6-0.5,1.5,0,2.1   c0.4,0.5,0.9,0.9,1.3,1.4c1.6,1.8,3.2,3.5,5,6.5c0.3,0.4,0.7,0.7,1.1,0.8c0.1,0,0.2,0,0.2,0c0.4,0,0.8-0.2,1.1-0.4   c4.4-4.1,7.5-6.3,10.6-8.3c0.7-0.5,0.9-1.4,0.5-2.2C53,50.6,51.2,48.3,47.9,45z M43.4,61.2c-1.5-2.3-2.9-3.9-4.3-5.4   c-0.1-0.1-0.2-0.2-0.3-0.4c2.9-3.4,5.5-5.6,7.8-7.3c2.2,2.3,3.6,4,5.2,6.5C49.3,56.4,46.7,58.3,43.4,61.2z"></path><path fill="#000000" d="M39.8,30.6c-0.8-0.4-1.7-0.2-2.2,0.6c-0.4,0.8-0.2,1.7,0.6,2.2c8.6,4.9,15.7,11.7,20.4,19.5   c0.3,0.5,0.8,0.8,1.4,0.8c0.3,0,0.6-0.1,0.8-0.2c0.8-0.5,1-1.4,0.5-2.2C56.3,43,48.8,35.8,39.8,30.6z"></path><path fill="#000000" d="M44.7,26.7c-0.8-0.4-1.7-0.1-2.2,0.7c-0.4,0.8-0.1,1.7,0.6,2.2c9,4.9,16.1,11.5,21,19.7   c0.3,0.5,0.8,0.8,1.4,0.8c0.3,0,0.6-0.1,0.8-0.2c0.8-0.5,1-1.4,0.5-2.2c-1.3-2.1-2.7-4.1-4.3-6.1c-1.3-1.7-2.8-3.3-4.4-4.8   C54.4,32.8,49.9,29.5,44.7,26.7z"></path><path fill="#000000" d="M32.3,69.7c-0.4,0.2-9.4,5.6-12.9,19.7c-0.2,0.9,0.3,1.7,1.2,1.9c0.1,0,0.3,0,0.4,0c0.7,0,1.4-0.5,1.5-1.2   c3.1-12.7,11.2-17.6,11.4-17.7c0.8-0.4,1-1.4,0.6-2.2C34,69.5,33,69.3,32.3,69.7z"></path><path fill="#000000" d="M27.2,64.3c0.8-0.4,1.1-1.4,0.7-2.1c-0.4-0.8-1.4-1.1-2.1-0.7c-0.4,0.2-10.5,5.6-14.5,19.6   c-0.2,0.8,0.3,1.7,1.1,2c0.1,0,0.3,0.1,0.4,0.1c0.7,0,1.3-0.5,1.5-1.2C17.8,69.3,27,64.4,27.2,64.3z"></path><path fill="#000000" d="M20.1,56.9c0.8-0.3,1.3-1.2,1-2c-0.3-0.8-1.2-1.3-2-1C18.6,54,7.4,58.2,3.6,72.8c-0.2,0.9,0.3,1.7,1.1,1.9   c0.1,0,0.3,0.1,0.4,0.1c0.7,0,1.4-0.5,1.5-1.2C10,60.7,19.7,57,20.1,56.9z"></path></g></svg>